<svg class="buttonIcon-2Zsrs2" aria-hidden="false" fill="none" xmlns="http://www.w3.org/2000/svg" width="16" height="16" viewBox="0 0 24 24"><g clip-path="url(#a)" fill="currentColor"><path d="M18 22.001H3a1 1 0 0 1-1-1v-15h2v14h14v2Z"></path><path fill-rule="evenodd" clip-rule="evenodd" d="M21 2.001H7a1 1 0 0 0-1 1v14a1 1 0 0 0 1 1h14a1 1 0 0 0 1-1v-14a1 1 0 0 0-1-1Zm-5.842 2.606a.619.619 0 0 0-.674.134L11.832 7.65H9.977a.62.62 0 0 0-.618.618v3.707c0 .34.278.618.618.618h1.854l2.652 2.908a.619.619 0 0 0 1.055-.436V5.178c0-.25-.15-.476-.381-.571Zm1.64 4.793V7.8c1.324 0 2.4 1.076 2.4 2.4 0 1.323-1.076 2.4-2.4 2.4V11c.442 0 .8-.36.8-.8 0-.44-.358-.8-.8-.8Z"></path></g><defs><clipPath id="a"><path fill="#fff" d="M0 0h24v24H0z"></path></clipPath></defs></svg>